<?xml version="1.0" standalone="no"?><!DOCTYPE svg PUBLIC "-//W3C//DTD SVG 1.1//EN" "http://www.w3.org/Graphics/SVG/1.1/DTD/svg11.dtd"><svg t="1749478841185" class="icon" viewBox="0 0 1024 1024" version="1.1" xmlns="http://www.w3.org/2000/svg" p-id="2441" xmlns:xlink="http://www.w3.org/1999/xlink" width="200" height="200"><path d="M390.247419 199.140747c-75.172534 28.169832-137.389643 82.520244-175.817609 151.865907l123.461266 0C351.629198 280.761492 372.575347 231.081969 390.247419 199.140747L390.247419 199.140747zM390.247419 199.140747" fill="#272636" p-id="2442"></path><path d="M497.034852 351.006653 497.034852 177.739429c-26.353977 0.845312-51.79521 5.0514-76.273125 11.624842-18.663086 31.218734-42.833943 83.653347-58.077249 161.642382L497.034852 351.006653 497.034852 351.006653zM497.034852 351.006653" fill="#272636" p-id="2443"></path><path d="M800.828077 351.006653c-37.815055-68.225806-98.142856-122.277589-171.635604-150.84479 17.56129 31.960489 38.203995 81.349812 51.798823 150.84479L800.828077 351.006653 800.828077 351.006653zM800.828077 351.006653" fill="#272636" p-id="2444"></path><path d="M598.465032 189.910954c-24.530897-6.872071-50.165998-11.051668-76.595837-12.212466l0 173.306961 0 0 134.362416 0C641.075003 273.455927 617.083564 221.19712 598.465032 189.910954L598.465032 189.910954zM598.465032 189.910954" fill="#272636" p-id="2445"></path><path d="M628.504905 824.907419c73.817868-28.504585 134.426235-82.587676 172.141346-151.096456l-119.800657 0C667.152026 744.022408 646.187814 793.294929 628.504905 824.907419L628.504905 824.907419zM628.504905 824.907419" fill="#272636" p-id="2446"></path><path d="M521.869195 673.810963l0 172.815669c26.099902-1.15839 51.545952-4.785283 75.796283-11.516469 18.654657-30.711788 42.767715-83.211424 58.065207-161.297996L521.869195 673.812167 521.869195 673.810963zM521.869195 673.810963" fill="#272636" p-id="2447"></path><path d="M214.782625 673.810963c38.478541 69.525081 100.722141 124.065748 176.166812 152.145269-17.786466-31.571549-39.025224-81.200498-52.863289-152.145269L214.782625 673.810963 214.782625 673.810963zM214.782625 673.810963" fill="#272636" p-id="2448"></path><path d="M421.580547 835.68695c24.229861 6.438578 49.398956 10.553151 75.454305 11.393646L497.034852 673.810963 363.186608 673.810963C378.575616 752.368356 402.886154 805.04139 421.580547 835.68695L421.580547 835.68695zM421.580547 835.68695" fill="#272636" p-id="2449"></path><path d="M247.876217 615.176194l0-216.240848-27.43771 0 0 169.778808L106.863294 398.936549 77.510989 398.936549l0 216.240848 27.43771 0L104.948699 445.254092l113.575213 169.923306L247.876217 615.177398zM247.876217 615.176194" fill="#272636" p-id="2450"></path><path d="M452.902838 424.453644l0-25.517094L296.552685 398.936549l0 216.240848 161.364224 0 0-25.514686L325.168052 589.662712l0-73.607142 119.621239 0 0-25.372597L325.168052 490.682973l0-66.228125L452.902838 424.454848zM452.902838 424.453644" fill="#272636" p-id="2451"></path><path d="M535.211152 615.176194l29.202991 0 45.87562-164.763533c1.965169-6.97924 4.080857-15.438378 6.34345-25.368984 0.686364 3.145234 2.950162 11.603167 6.786577 25.368984l45.576991 164.763533 27.58582 0 59.293438-216.240848L727.112562 398.935345l-33.924454 138.94781c-4.427651 17.702176-8.01842 33.388608-10.769897 47.054481-3.442658-23.895107-9.04917-49.412202-16.815923-76.5561l-30.975496-109.446191-34.516895 0-41.154157 146.028199c-0.983789 3.541398-4.228967 16.87011-9.730718 39.974092-2.562426-14.650865-5.606512-29.402879-9.149114-44.252429l-32.890091-141.749862-29.352305 0L535.211152 615.176194 535.211152 615.176194zM535.211152 615.176194" fill="#272636" p-id="2452"></path><path d="M935.975597 523.355113c-5.999064-8.896243-15.292676-16.246361-27.879632-22.051557-8.655414-3.930338-24.609167-8.530182-47.862464-13.788696-23.258113-5.258513-37.63925-10.400224-43.145817-15.415499-5.606512-5.015275-8.407359-11.406891-8.407359-19.178461 0-8.944409 3.958034-16.59436 11.872897-22.936606s20.524698-9.510359 37.83673-9.510359c16.618443 0 29.176499 3.487212 37.683803 10.472473 8.503691 6.980444 13.496088 17.308419 14.973577 30.974292l27.432893-2.063909c-0.492496-12.6869-4.031487-24.044422-10.61697-34.073768-6.592709-10.030551-16.003123-17.623906-28.245693-22.788496-12.243774-5.163385-26.379264-7.74267-42.410083-7.74267-14.552125 0-27.780892 2.45887-39.676668 7.372997-11.899388 4.920148-20.944946 12.120951-27.137877 21.608431-6.198952 9.492297-9.293612 19.693836-9.293612 30.608231 0 9.934219 2.529914 18.908732 7.59456 26.921131 5.064645 8.016011 12.759149 14.724318 23.08592 20.13335 7.960621 4.227763 21.876956 8.728867 41.741781 13.4997 19.860008 4.770833 32.696223 8.27972 38.496603 10.543517 9.045558 3.442658 15.537118 7.694504 19.473477 12.759149 3.930338 5.064645 5.895507 10.987848 5.895507 17.774425 0 6.691449-2.04103 12.857889-6.11707 18.513771-4.084469 5.655882-10.305096 10.101595-18.658269 13.345569-8.362806 3.248791-17.994784 4.870778-28.915199 4.870778-12.288328 0-23.353241-2.140975-33.185107-6.415699-9.835479-4.278337-17.090469-9.884849-21.756541-16.815923-4.672093-6.934687-7.64995-15.808051-8.922735-26.622502l-26.994584 2.358925c0.392552 14.455793 4.354198 27.413627 11.871692 38.866276 7.527127 11.457466 17.90086 20.037018 31.12481 25.737453 13.22395 5.701639 29.624442 8.556674 49.194251 8.556674 15.432357 0 29.325814-2.828543 41.668328-8.479608 12.338902-5.657086 21.802299-13.571949 28.395007-23.75061 6.587892-10.179865 9.880032-21.017194 9.880032-32.525234C944.970581 542.511899 941.969845 532.26099 935.975597 523.355113L935.975597 523.355113zM935.975597 523.355113" fill="#272636" p-id="2453"></path></svg>